HIERARCHY
ROOT Hips
{
    OFFSET 0.000000 0.000000 0.000000
    CHANNELS 6 Xposition Yposition Zposition Zrotation Xrotation Yrotation
    JOINT Chest
    {
        OFFSET -0.000000 0.071157 0.000000
        CHANNELS 3 Zrotation Xrotation Yrotation
        JOINT Chest2
        {
            OFFSET -0.000000 0.200496 0.000000
            CHANNELS 3 Zrotation Xrotation Yrotation
            JOINT Neck
            {
                OFFSET -0.000000 0.217851 0.000000
                CHANNELS 3 Zrotation Xrotation Yrotation
                JOINT Head
                {
                    OFFSET -0.000000 0.094152 0.017355
                    CHANNELS 3 Zrotation Xrotation Yrotation
                    End Site
                    {
                        OFFSET -0.000000 0.173553 0.000000
                    }
                }
            }
            JOINT LeftCollar
            {
                OFFSET 0.034349 0.184703 -0.001098
                CHANNELS 3 Zrotation Xrotation Yrotation
                JOINT LeftShoulder
                {
                    OFFSET 0.100089 0.000000 0.000000
                    CHANNELS 3 Zrotation Xrotation Yrotation
                    JOINT LeftElbow
                    {
                        OFFSET 0.265196 0.000000 0.000000
                        CHANNELS 3 Zrotation Xrotation Yrotation
                        JOINT LeftWrist
                        {
                            OFFSET 0.220131 0.000000 0.000000
                            CHANNELS 3 Zrotation Xrotation Yrotation
                            End Site
                            {
                                OFFSET 0.000000 -0.130165 0.000000
                            }
                        }
                    }
                }
            }
            JOINT RightCollar
            {
                OFFSET -0.035053 0.184703 -0.001098
                CHANNELS 3 Zrotation Xrotation Yrotation
                JOINT RightShoulder
                {
                    OFFSET -0.100089 0.000000 0.000000
                    CHANNELS 3 Zrotation Xrotation Yrotation
                    JOINT RightElbow
                    {
                        OFFSET -0.265196 0.000000 0.000000
                        CHANNELS 3 Zrotation Xrotation Yrotation
                        JOINT RightWrist
                        {
                            OFFSET -0.220131 0.000000 0.000000
                            CHANNELS 3 Zrotation Xrotation Yrotation
                            End Site
                            {
                                OFFSET -0.000000 -0.130165 0.000000
                            }
                        }
                    }
                }
            }
        }
    }
    JOINT LeftHip
    {
        OFFSET 0.086776 0.000000 0.000000
        CHANNELS 3 Zrotation Xrotation Yrotation
        JOINT LeftKnee
        {
            OFFSET -0.000000 -0.397777 0.000000
            CHANNELS 3 Zrotation Xrotation Yrotation
            JOINT LeftAnkle
            {
                OFFSET -0.000000 -0.331973 0.000000
                CHANNELS 3 Zrotation Xrotation Yrotation
                JOINT LeftToe
                {
                    OFFSET -0.000000 -0.056405 0.130165
                    CHANNELS 3 Zrotation Xrotation Yrotation
                    End Site
                    {
                        OFFSET -0.000000 0.000000 0.034711
                    }
                }
            }
        }
    }
    JOINT RightHip
    {
        OFFSET -0.086776 0.000000 0.000000
        CHANNELS 3 Zrotation Xrotation Yrotation
        JOINT RightKnee
        {
            OFFSET -0.000000 -0.397777 0.000000
            CHANNELS 3 Zrotation Xrotation Yrotation
            JOINT RightAnkle
            {
                OFFSET -0.000000 -0.331973 0.000000
                CHANNELS 3 Zrotation Xrotation Yrotation
                JOINT RightToe
                {
                    OFFSET -0.000000 -0.056405 0.130165
                    CHANNELS 3 Zrotation Xrotation Yrotation
                    End Site
                    {
                        OFFSET -0.000000 0.000000 0.034711
                    }
                }
            }
        }
    }
}
MOTION
Frames:    12
Frame Time:    0.016667
-0.436600    0.805412    -1.135209    0.180209    -1.177898    40.599514    1.454361    -4.287580    1.588422    -1.507190    4.650764    0.573575    -3.151293    21.577738    -3.404321    1.621212    6.132393    -4.825830    8.922605    2.613668    4.632328    -22.466877    0.767646    2.656777    -0.114498    -5.258445    1.434860    90.137497    6.294375    5.249454    -12.520565    1.772212    2.582114    26.266275    -1.645381    7.427186    -1.371376    -2.043432    0.463250    -91.447021    5.278495    -1.971185    3.018971    0.680963    -0.268259    -5.654564    11.276344    1.743778    3.350150    -11.676693    10.136305    0.000000    0.000000    0.000000    2.141314    -3.143646    0.335966    0.108023    11.674937    3.560416    -2.663317    -7.936730    -4.008702    0.000000    0.000000    0.000000    
-0.436613    0.805411    -1.135346    0.129330    -1.123505    40.585670    1.431122    -4.281313    1.605313    -1.475867    4.515408    0.576580    -3.141966    21.664837    -3.429550    1.569834    6.101351    -4.841585    8.916104    2.683531    4.529898    -22.480185    0.653614    2.756810    -0.080838    -5.262419    1.389537    90.112450    6.334476    5.255210    -12.370742    2.216510    2.489061    26.039942    -1.977746    7.714592    -1.268757    -2.075613    0.423785    -91.633240    5.276922    -1.995652    3.013851    0.585972    -0.201987    -5.642794    11.310338    1.680343    3.351552    -11.716299    10.171375    0.000000    0.000000    0.000000    2.133456    -3.192192    0.338893    0.086596    11.558485    3.364727    -2.703439    -7.858078    -3.710866    0.000000    0.000000    0.000000    
-0.436492    0.805483    -1.135272    0.150220    -1.185253    40.595444    1.453245    -4.250953    1.596884    -1.497560    4.566337    0.575161    -3.138736    21.718855    -3.441417    1.609358    6.032434    -4.860483    8.948268    2.712548    4.515426    -22.494411    0.631353    2.739245    -0.077498    -5.229545    1.387464    90.172516    6.322115    5.219079    -12.579236    1.936403    2.582220    26.381924    -1.721169    7.490945    -1.418974    -2.138265    0.479235    -91.575844    5.274949    -2.059730    3.034804    0.671979    -0.270685    -5.654312    11.248534    1.914939    3.318417    -11.655500    9.962329    0.000000    0.000000    0.000000    2.162978    -3.161671    0.378882    0.113981    11.660740    3.321231    -2.579133    -7.873266    -3.803651    0.000000    0.000000    0.000000    
-0.436458    0.805467    -1.135361    0.138623    -1.168333    40.611252    1.448196    -4.271999    1.572726    -1.540818    4.588562    0.569099    -3.100969    21.672710    -3.397459    1.541427    6.134656    -4.790707    8.974057    2.706954    4.514947    -22.523207    0.655442    2.746881    -0.018772    -5.187541    1.333433    90.222160    6.321770    5.175066    -12.255734    1.955695    2.716178    26.025093    -1.596039    7.323887    -1.412157    -2.239990    0.575356    -91.405556    5.271190    -2.168184    3.026321    0.654341    -0.359758    -5.667548    11.225298    1.982763    3.482620    -11.518146    9.969058    0.000000    0.000000    0.000000    2.151031    -3.147468    0.252276    0.060864    11.570841    3.596767    -2.525434    -7.783925    -3.910219    0.000000    0.000000    0.000000    
-0.436281    0.805576    -1.135248    0.205785    -1.248530    40.591923    1.442753    -4.247029    1.574243    -1.550798    4.741170    0.572189    -3.102544    21.607700    -3.392225    1.535433    6.121021    -4.782771    9.004497    2.657835    4.525670    -22.493044    0.633770    2.736079    -0.079846    -5.208879    1.319976    90.162796    6.308768    5.198996    -12.830444    1.223699    2.694023    26.861591    -1.288949    7.142036    -1.578645    -2.085894    0.503131    -91.566055    5.275427    -2.006836    3.023527    0.791090    -0.265644    -5.700882    11.196287    1.916554    3.566406    -11.493019    10.071928    0.000000    0.000000    0.000000    2.150319    -3.013192    0.273499    0.090544    11.534575    3.350668    -2.600634    -7.807284    -3.699093    0.000000    0.000000    0.000000    
-0.436223    0.805574    -1.135308    0.210654    -1.246121    40.601177    1.411351    -4.168074    1.583869    -1.539178    4.620981    0.574033    -3.132519    21.598593    -3.370396    1.652663    6.249087    -4.792647    9.013284    2.657887    4.470229    -22.514282    0.727796    2.774590    -0.020128    -5.269614    1.266652    90.016342    6.287954    5.268500    -13.065837    1.086960    2.558689    27.187578    -1.274672    7.266944    -1.560499    -1.975410    0.357508    -91.741409    5.210669    -1.891284    3.009126    0.779153    -0.173543    -5.625984    11.256344    1.678049    3.501043    -11.575108    10.147799    0.000000    0.000000    0.000000    2.147333    -3.050827    0.326614    0.051157    11.626646    3.494622    -2.720404    -7.861297    -3.848458    0.000000    0.000000    0.000000    
-0.436167    0.805594    -1.135368    0.217353    -1.258238    40.612659    1.404791    -4.143845    1.574373    -1.528639    4.617825    0.570508    -3.123325    21.545876    -3.355638    1.595825    6.385150    -4.764481    8.991205    2.654941    4.438297    -22.490116    0.753048    2.781042    -0.037627    -5.295040    1.270218    89.983063    6.308868    5.295567    -13.068697    1.032503    2.585504    27.188843    -1.234478    7.224491    -1.597979    -2.030194    0.360689    -91.695015    5.175752    -1.948568    3.009695    0.791197    -0.187424    -5.631370    11.254210    1.654868    3.522747    -11.548342    10.152375    0.000000    0.000000    0.000000    2.141952    -3.038313    0.336726    0.081026    11.660428    3.520703    -2.611676    -7.938119    -3.959926    0.000000    0.000000    0.000000    
-0.436223    0.805496    -1.135561    0.170329    -1.190662    40.603138    1.382057    -4.208596    1.580026    -1.513299    4.624525    0.571893    -3.151052    21.573915    -3.347710    1.625198    6.371908    -4.771198    8.939541    2.666693    4.439343    -22.420031    0.715527    2.744609    -0.105748    -5.242707    1.346387    90.217323    6.365070    5.229390    -13.048185    0.630348    2.718234    27.194847    -1.002995    6.781728    -1.635916    -2.014014    0.662665    -91.537315    5.330211    -1.933007    2.996593    0.701663    -0.262890    -5.651665    11.223632    1.848079    3.515078    -11.499701    10.011702    0.000000    0.000000    0.000000    2.123443    -3.104390    0.276333    0.082737    11.570355    3.510417    -2.510798    -7.816674    -3.928408    0.000000    0.000000    0.000000    
-0.436172    0.805491    -1.135638    0.176595    -1.191966    40.608498    1.376918    -4.188179    1.577301    -1.522824    4.621044    0.571539    -3.151784    21.586950    -3.351536    1.627764    6.369311    -4.776173    8.929675    2.670871    4.439668    -22.391586    0.693277    2.716282    -0.119060    -5.204059    1.353812    90.352638    6.368861    5.183043    -12.725343    1.104158    2.753514    26.705275    -1.243691    6.930231    -1.521930    -2.124154    0.714691    -91.474991    5.354202    -2.045703    2.984718    0.708467    -0.275821    -5.652162    11.206635    1.890604    3.347915    -11.579871    9.963801    0.000000    0.000000    0.000000    2.119247    -3.105834    0.271648    0.042486    11.563365    3.478637    -2.446039    -7.788270    -3.817885    0.000000    0.000000    0.000000    
-0.436161    0.805485    -1.135758    0.172732    -1.180292    40.599087    1.367189    -4.170312    1.588903    -1.528415    4.611599    0.575614    -3.116269    21.595053    -3.368959    1.570833    6.313073    -4.771789    8.923815    2.665914    4.442771    -22.362293    0.671253    2.687424    -0.100505    -5.208752    1.316632    90.378738    6.317887    5.186702    -12.829733    1.613919    2.412314    26.804502    -1.883375    7.644695    -1.421469    -1.959712    0.482666    -91.649422    5.292105    -1.877493    2.977022    0.677677    -0.183428    -5.645253    11.256329    1.705143    3.381593    -11.637432    10.093155    0.000000    0.000000    0.000000    2.120079    -3.178910    0.361023    0.068771    11.717587    3.532921    -2.575338    -7.928714    -4.010611    0.000000    0.000000    0.000000    
-0.436156    0.805560    -1.135919    0.145278    -1.177399    40.593700    1.381671    -4.179020    1.585160    -1.524150    4.650669    0.574561    -3.121672    21.489687    -3.397907    1.463984    6.412599    -4.782247    8.898016    2.639092    4.494667    -22.324327    0.709342    2.618506    -0.095546    -5.281578    1.312129    90.144333    6.412969    5.272404    -12.703272    2.197461    2.245361    26.568905    -2.455117    8.139935    -1.289860    -1.892721    0.412550    -91.811981    5.256173    -1.804934    2.983049    0.641198    -0.121816    -5.624126    11.260944    1.839889    3.321307    -11.643865    9.909029    0.000000    0.000000    0.000000    2.138009    -3.221822    0.392445    0.023968    11.741840    3.666759    -2.698043    -7.848808    -4.098186    0.000000    0.000000    0.000000    
-0.436001    0.805554    -1.136037    0.169695    -1.146461    40.611687    1.368148    -4.209522    1.569700    -1.610652    4.714386    0.573949    -3.016977    21.579527    -3.423990    1.437583    6.231582    -4.770881    8.989374    2.630217    4.515408    -22.380564    0.722781    2.579698    -0.087741    -5.244007    1.322578    90.112717    6.310923    5.236782    -12.456888    1.717900    2.613466    26.321926    -1.599086    7.484356    -1.480284    -2.150117    0.497896    -91.486755    5.220868    -2.075906    2.917927    0.647964    -0.247945    -5.619815    11.224401    1.902230    3.500697    -11.488917    9.958145    0.000000    0.000000    0.000000    2.074204    -3.190861    0.251921    0.023582    11.650774    3.686189    -2.527234    -7.862456    -3.978971    0.000000    0.000000    0.000000    
